<svg width="30" height="22" viewBox="0 0 30 22" fill="none" xmlns="http://www.w3.org/2000/svg">
<g clip-path="url(#clip0_253_70)">
<path d="M29.3737 3.73164C29.0294 2.43278 28.0118 1.41005 26.7214 1.06232C24.3828 0.431641 15.001 0.431641 15.001 0.431641C15.001 0.431641 5.61916 0.431641 3.28052 1.06232C1.99018 1.41005 0.972567 2.43278 0.628249 3.73164C0.000976562 6.08732 0.000976562 10.9998 0.000976562 10.9998C0.000976562 10.9998 0.000976562 15.9123 0.628249 18.268C0.972567 19.5669 1.99018 20.5896 3.28052 20.9373C5.62086 21.568 15.001 21.568 15.001 21.568C15.001 21.568 24.3828 21.568 26.7214 20.9373C28.0118 20.5896 29.0294 19.5669 29.3737 18.268C30.001 15.914 30.001 10.9998 30.001 10.9998C30.001 10.9998 30.001 6.08732 29.3737 3.73164Z" fill="#FF0000"/>
<path d="M11.9326 15.4607L19.7735 10.9999L11.9326 6.53906V15.4607Z" fill="white"/>
</g>
<defs>
<clipPath id="clip0_253_70">
<rect width="30" height="21.1364" fill="white" transform="translate(0.000976562 0.431641)"/>
</clipPath>
</defs>
</svg>
