<svg xmlns="http://www.w3.org/2000/svg" width="253" height="66.175" viewbox="0 0 253 66.175"><defs><style>.prefix__cls-1{fill:#fff;stroke:transparent;stroke-miterlimit:10}</style></defs><g id="prefix__グループ_24" data-name="グループ 24" transform="translate(.5 .5)"><g id="prefix__グループ_21" data-name="グループ 21"><path id="prefix__パス_366" d="M1359.776 87.449c-.324.038-.725.335-.669.682.064.245.5.442.777.427a.561.561 0 10-.108-1.109z" class="prefix__cls-1" data-name="パス 366" transform="translate(-1340.594 -49.606)"/><path id="prefix__パス_367" d="M1360.266 88.849h-.659l-.763 1.215h-.005v-1.215h-.611v3.011h.611v-.883l.215-.354.614 1.237h.691l-.918-1.7z" class="prefix__cls-1" data-name="パス 367" transform="translate(-1341.953 -47.42)"/><path id="prefix__パス_368" d="M1360.246 90.021l-.389-1.173h-.691l.8 1.831v1.18h.591V90.68l.776-1.831h-.651z" class="prefix__cls-1" data-name="パス 368" transform="translate(-1340.494 -47.42)"/><path id="prefix__パス_369" d="M1361.988 89.267a.647.647 0 00-.312-.322.988.988 0 00-.531-.118 1.042 1.042 0 00-.544.118.682.682 0 00-.307.322 1.268 1.268 0 00-.13.5 4.113 4.113 0 00-.031.631 3.963 3.963 0 00.031.626 1.372 1.372 0 00.13.5.618.618 0 00.307.307 1.072 1.072 0 00.544.11 1.016 1.016 0 00.531-.11.59.59 0 00.312-.307 1.172 1.172 0 00.146-.5 5.154 5.154 0 00.033-.626 5.392 5.392 0 00-.033-.631 1.089 1.089 0 00-.146-.5zm-.439 1.638a1.747 1.747 0 01-.061.345.413.413 0 01-.125.2.389.389 0 01-.217.059.4.4 0 01-.22-.059.342.342 0 01-.115-.2.951.951 0 01-.059-.345 3.69 3.69 0 01-.021-.511 3.73 3.73 0 01.021-.513.977.977 0 01.059-.347.359.359 0 01.115-.2.444.444 0 01.22-.056.435.435 0 01.217.056.439.439 0 01.125.2 1.815 1.815 0 01.061.347c0 .141.013.307.013.513s-.014.373-.014.506z" class="prefix__cls-1" data-name="パス 369" transform="translate(-1338.99 -47.452)"/><path id="prefix__パス_370" d="M1361.053 89.358h.651v2.5h.616v-2.5h.641v-.509h-1.908z" class="prefix__cls-1" data-name="パス 370" transform="translate(-1337.561 -47.42)"/><path id="prefix__パス_371" d="M1363.765 89.267a.668.668 0 00-.317-.322.99.99 0 00-.536-.118 1.042 1.042 0 00-.539.118.624.624 0 00-.294.322 1.411 1.411 0 00-.158.5c-.018.192-.026.4-.026.631s.008.445.026.626a1.553 1.553 0 00.158.5.567.567 0 00.294.307 1.072 1.072 0 00.539.11 1.019 1.019 0 00.536-.11.608.608 0 00.317-.307 1.432 1.432 0 00.136-.5 4.3 4.3 0 00.028-.626 4.466 4.466 0 00-.028-.631 1.317 1.317 0 00-.136-.5zm-.452 1.638a1.225 1.225 0 01-.056.345.383.383 0 01-.13.2.335.335 0 01-.215.059.394.394 0 01-.217-.059.361.361 0 01-.123-.2 3.335 3.335 0 01-.053-.345c-.013-.138-.015-.307-.015-.511s0-.373.015-.513.035-.261.053-.347a.381.381 0 01.123-.2.441.441 0 01.217-.056.371.371 0 01.215.056.405.405 0 01.13.2 1.263 1.263 0 01.056.347 3.34 3.34 0 01.023.513 3.305 3.305 0 01-.023.506z" class="prefix__cls-1" data-name="パス 371" transform="translate(-1336.251 -47.452)"/><path id="prefix__パス_372" d="M1367.782 91a.994.994 0 01-.057.363c-.035.074-.087.112-.217.112a.226.226 0 01-.217-.112 1.153 1.153 0 01-.051-.363v-.084h-.549v.128a1.2 1.2 0 00.041.327.728.728 0 00.11.289.682.682 0 00.24.181 1.136 1.136 0 00.4.064 1.032 1.032 0 00.685-.2.953.953 0 00.214-.69v-2.166h-.6z" class="prefix__cls-1" data-name="パス 372" transform="translate(-1328.795 -47.42)"/><path id="prefix__パス_373" d="M1368.306 88.849l-.812 3.009h.631l.133-.634h.807l.13.634h.633l-.789-3.009zm.069 1.885l.281-1.357h.01l.289 1.357z" class="prefix__cls-1" data-name="パス 373" transform="translate(-1327.546 -47.42)"/><path id="prefix__パス_374" d="M1370.384 89.426a.677.677 0 00-.135-.291.764.764 0 00-.258-.2.884.884 0 00-.388-.084h-1.06v3.009h.606v-1.2h.317a1.32 1.32 0 00.406-.051 1.193 1.193 0 00.3-.153 1.715 1.715 0 00.2-.284 1.681 1.681 0 00.056-.409 1.194 1.194 0 00-.044-.337zm-.667.677a.4.4 0 01-.3.12h-.268V89.3h.245a.421.421 0 01.34.112.657.657 0 01.084.355.5.5 0 01-.101.333z" class="prefix__cls-1" data-name="パス 374" transform="translate(-1325.917 -47.42)"/><path id="prefix__パス_375" d="M1370.077 88.849l-.8 3.009h.639l.133-.634h.8l.138.634h.631l-.8-3.009zm.079 1.885l.291-1.357h.01l.289 1.357z" class="prefix__cls-1" data-name="パス 375" transform="translate(-1324.769 -47.42)"/><path id="prefix__パス_376" d="M1371.761 90.922l-.744-2.073h-.7v3.011h.546v-2.1h.015l.743 2.1h.681v-3.011h-.546z" class="prefix__cls-1" data-name="パス 376" transform="translate(-1323.151 -47.42)"/><path id="prefix__パス_377" d="M1363.636 92.206a.208.208 0 00.214-.209v-1.876h1.571V92a.209.209 0 00.217.209.207.207 0 00.207-.209v-1.879h1.85V92a.2.2 0 00.2.209.211.211 0 00.22-.209v-1.879h1.571V92a.2.2 0 00.21.209.219.219 0 00.23-.209v-2.08a.228.228 0 00-.23-.225h-2.92v-.93a.208.208 0 00-.417 0v.93h-2.925a.214.214 0 00-.21.225V92a.2.2 0 00.212.206z" class="prefix__cls-1" data-name="パス 377" transform="translate(-1333.871 -47.877)"/><path id="prefix__パス_378" d="M1363.626 93h1.285a.209.209 0 100-.416h-1.07V92.1h1.07a.211.211 0 00.222-.212.217.217 0 00-.222-.209h-1.07v-.519h1.07a.216.216 0 100-.432h-1.07v-.337a.214.214 0 00-.215-.215.208.208 0 00-.209.215v2.394a.206.206 0 00.209.215z" class="prefix__cls-1" data-name="パス 378" transform="translate(-1333.885 -45.356)"/><path id="prefix__パス_379" d="M1366.879 90.176a.214.214 0 00-.212.215v.337h-1.073a.216.216 0 000 .432h1.073v.519h-1.073a.218.218 0 00-.21.209.211.211 0 00.21.212h1.073v.48h-1.073a.208.208 0 100 .416h1.285a.2.2 0 00.2-.212v-2.393a.2.2 0 00-.2-.215z" class="prefix__cls-1" data-name="パス 379" transform="translate(-1330.825 -45.356)"/><path id="prefix__パス_380" d="M1366.552 91.638a.218.218 0 00-.095-.184L1365.8 91l.654-.457a.193.193 0 00.061-.3.2.2 0 00-.291-.061l-.8.557-.8-.557a.211.211 0 00-.3.061.22.22 0 00.051.3l.664.457-.664.455a.265.265 0 00-.087.184.226.226 0 00.087.174l.672.468-.672.462a.208.208 0 00-.051.286.2.2 0 00.172.1.292.292 0 00.133-.033l.8-.557.8.557a.227.227 0 00.123.033.213.213 0 00.107-.388l-.654-.462.654-.468a.19.19 0 00.093-.173zm-1.122.381l-.542-.381.542-.378.534.378z" class="prefix__cls-1" data-name="パス 380" transform="translate(-1332.526 -45.404)"/><path id="prefix__パス_381" d="M1369.9 91.539h-6.261a.21.21 0 00-.21.22v3.592a.2.2 0 00.21.209.208.208 0 00.214-.209v-3.383h5.837V95.3a.2.2 0 00.21.212.221.221 0 00.23-.212v-3.541a.223.223 0 00-.23-.22z" class="prefix__cls-1" data-name="パス 381" transform="translate(-1333.871 -43.237)"/><path id="prefix__パス_382" d="M1368.617 91.855a.211.211 0 00-.207.2v1.666h-1.885v-.508h1.257a.213.213 0 00.222-.207v-.95a.214.214 0 00-.222-.2h-2.935a.2.2 0 00-.2.2v.95a.2.2 0 00.2.207h1.241v.508h-1.86v-1.664a.216.216 0 00-.217-.2.222.222 0 00-.227.2v1.88a.219.219 0 00.227.2h2.077v.508h-2.161a.217.217 0 00-.209.209.214.214 0 00.209.209h2.376a.209.209 0 00.222-.209v-.718h2.092a.2.2 0 00.22-.2v-1.88a.207.207 0 00-.22-.201zm-3.556.93v-.513h2.516v.513z" class="prefix__cls-1" data-name="パス 382" transform="translate(-1333.418 -42.746)"/><path id="prefix__パス_383" d="M1384.445 72.632a32.588 32.588 0 1032.583 32.585 32.584 32.584 0 00-32.583-32.585zm22.52 55.1a31.837 31.837 0 119.335-22.52 31.757 31.757 0 01-9.336 22.525z" class="prefix__cls-1" data-name="パス 383" transform="translate(-1351.857 -72.632)"/><path id="prefix__パス_384" d="M1383.4 73.307a30.866 30.866 0 1030.871 30.861 30.866 30.866 0 00-30.871-30.861zm21.5 52.351a30.394 30.394 0 118.9-21.49 30.313 30.313 0 01-8.9 21.49z" class="prefix__cls-1" data-name="パス 384" transform="translate(-1350.812 -71.583)"/><path id="prefix__パス_385" d="M1358.4 87.4l-1.714-.14-.7-.873 2.627-1.557.065-.873-3.121 1.906-1.811-2.275-.08.938 2.208 2.665-2.407-.195-.058.654 4.937.409z" class="prefix__cls-1" data-name="パス 385" transform="translate(-1349.444 -55.602)"/><path id="prefix__パス_386" d="M1358.945 85.2l.192-.646-1.921-.574-2.293-2.642-.222.758 1.861 2.038-2.672.681-.232.753 3.37-.945z" class="prefix__cls-1" data-name="パス 386" transform="translate(-1349.057 -59.1)"/><path id="prefix__パス_387" d="M1356.151 84.022a2.845 2.845 0 001.9.4 2.522 2.522 0 001.719-3.26 2.869 2.869 0 00-1.323-1.395 2.668 2.668 0 00-1.707-.4 2.259 2.259 0 00-1.691 1.267 2.2 2.2 0 00-.138 2.11 2.942 2.942 0 001.24 1.278zm-.565-3.124a1.591 1.591 0 011.081-.83 2.109 2.109 0 011.453.3 2.771 2.771 0 011.089 1.068 1.444 1.444 0 01-.095 1.428 1.6 1.6 0 01-1.155.9 2.344 2.344 0 01-1.412-.332 2.206 2.206 0 01-1.119-1.185 1.662 1.662 0 01.158-1.347z" class="prefix__cls-1" data-name="パス 387" transform="translate(-1347.431 -62.199)"/><path id="prefix__パス_388" d="M1357.335 79.448l3.246 2.926.459-.509-3.228-2.924 1.105-1.238-.424-.4-2.7 2.986.432.387z" class="prefix__cls-1" data-name="パス 388" transform="translate(-1345.741 -65.363)"/><path id="prefix__パス_389" d="M1359.792 81.306a2.3 2.3 0 001.911-.437 2.218 2.218 0 001.022-1.8 2.953 2.953 0 00-.61-1.827 2.76 2.76 0 00-1.387-1.081 2.243 2.243 0 00-2.064.442 2.217 2.217 0 00-1.009 1.855 3.216 3.216 0 002.138 2.851zm-.761-4.251a1.585 1.585 0 011.339-.286 2 2 0 011.178.876 2.788 2.788 0 01.539 1.428 1.364 1.364 0 01-.677 1.257 1.53 1.53 0 01-1.413.322 2.184 2.184 0 01-1.157-.876 2.213 2.213 0 01-.511-1.548 1.688 1.688 0 01.702-1.173z" class="prefix__cls-1" data-name="パス 389" transform="translate(-1342.845 -67.298)"/><path id="prefix__パス_390" d="M1362.1 79.53a1.75 1.75 0 001.9.376 1.718 1.718 0 001.367-1.364 3.163 3.163 0 00-.158-1.42l-.823-2.662-.628.2.884 2.93a2.027 2.027 0 01.082.861 1.2 1.2 0 01-.95.9 1.063 1.063 0 01-1.129-.22 1.962 1.962 0 01-.455-.8l-.884-2.93-.656.2.812 2.667a3.116 3.116 0 00.638 1.262z" class="prefix__cls-1" data-name="パス 390" transform="translate(-1338.178 -69.792)"/><path id="prefix__パス_391" d="M1364.153 79.311l-.212-4 2.712 3.867.751-.045-.257-4.95-.629.04.2 4-2.672-3.867-.8.045.264 4.945z" class="prefix__cls-1" data-name="パス 391" transform="translate(-1334.144 -70.223)"/><path id="prefix__パス_392" d="M1366.91 74.356l-.664-.075-.614 4.912.671.077z" class="prefix__cls-1" data-name="パス 392" transform="translate(-1330.44 -70.068)"/><path id="prefix__パス_393" d="M1368.009 79.9l3.148-4.226-.729-.22-2.54 3.643-.16-4.446-.721-.209.324 5.254z" class="prefix__cls-1" data-name="パス 393" transform="translate(-1328.301 -69.822)"/><path id="prefix__パス_394" d="M1371.7 81.391l.282-.516-2.617-1.454.821-1.467 2.385 1.327.265-.511-2.37-1.315.721-1.327 2.58 1.432.294-.521-3.141-1.749-2.41 4.331z" class="prefix__cls-1" data-name="パス 394" transform="translate(-1325.961 -68.501)"/><path id="prefix__パス_395" d="M1370.8 80.736l1.438-1.566 1.1.994a1.444 1.444 0 01.365.462.712.712 0 01-.174.72l-.534.639c-.12.153-.2.258-.232.312a.839.839 0 00-.077.151l.611.57.082-.084a.405.405 0 01.036-.376 4.033 4.033 0 01.245-.332l.437-.511a1.13 1.13 0 00.307-.57 1.288 1.288 0 00-.11-.531 1.164 1.164 0 00.68.013 1.3 1.3 0 00.639-.422 1.188 1.188 0 00.268-1.316 2.324 2.324 0 00-.562-.746l-1.671-1.512-3.347 3.661zm2.948-3.227l1.18 1.07a1 1 0 01.324.432.726.726 0 01-.215.787.738.738 0 01-.651.322 1.184 1.184 0 01-.661-.353l-1.1-1.012z" class="prefix__cls-1" data-name="パス 395" transform="translate(-1323.193 -66.415)"/><path id="prefix__パス_396" d="M1372.929 82.23a1.269 1.269 0 01-.225-1.219 1.381 1.381 0 01.46-.547l-.355-.524a1.61 1.61 0 00-.772 1.129 2.1 2.1 0 00.4 1.438 2.544 2.544 0 001.065.915 1.248 1.248 0 001.3-.176 1.177 1.177 0 00.564-.948 1.827 1.827 0 00-.148-.8l-.255-.641a9.2 9.2 0 01-.278-.879.629.629 0 01.278-.544.785.785 0 01.623-.11 1.2 1.2 0 01.685.519 1.293 1.293 0 01.235 1.055 1.433 1.433 0 01-.389.524l.345.519a1.366 1.366 0 00.7-1.122 2.068 2.068 0 00-.411-1.272 1.689 1.689 0 00-1.063-.81 1.493 1.493 0 00-1.17.238 1.073 1.073 0 00-.508.909 2.729 2.729 0 00.243.917l.227.626a2.183 2.183 0 01.21.815.643.643 0 01-.353.521.726.726 0 01-.924-.056 1.97 1.97 0 01-.484-.477z" class="prefix__cls-1" data-name="パス 396" transform="translate(-1320.502 -63.192)"/><path id="prefix__パス_397" d="M1373.261 83.314l4.471-2.086-.267-.619-4.5 2.081z" class="prefix__cls-1" data-name="パス 397" transform="translate(-1319.037 -60.23)"/><path id="prefix__パス_398" d="M1373.488 84.574l.167.649 4.2-1.178.449 1.607.586-.16-1.093-3.864-.569.157.442 1.611z" class="prefix__cls-1" data-name="パス 398" transform="translate(-1318.229 -58.646)"/><path id="prefix__パス_399" d="M1373.832 85.97l.027.669 2.006-.137 3.086 1.674-.05-.793-2.49-1.263 2.29-1.577-.055-.786-2.822 2.078z" class="prefix__cls-1" data-name="パス 399" transform="translate(-1317.693 -55.336)"/><path id="prefix__パス_400" d="M1358.018 92.441L1357 90.223l1.375-.629 1.168 2.515.537-.25-1.447-3.126-4.478 2.068.272.624 2.036-.943 1.025 2.21z" class="prefix__cls-1" data-name="パス 400" transform="translate(-1348.287 -47.599)"/><path id="prefix__パス_401" d="M1360.14 91.6a2.157 2.157 0 00-1.885-.943 2.969 2.969 0 00-1.655.657 2.933 2.933 0 00-1.114 1.576 2.288 2.288 0 00.5 1.9 2.255 2.255 0 001.84.961 2.929 2.929 0 001.811-.677 2.7 2.7 0 001.024-1.415 2.237 2.237 0 00-.521-2.059zm-.1 1.707a2.147 2.147 0 01-.838 1.224 2.761 2.761 0 01-1.407.582 1.4 1.4 0 01-1.29-.628 1.533 1.533 0 01-.358-1.41 2.128 2.128 0 01.848-1.183 2.195 2.195 0 011.523-.565 1.617 1.617 0 011.18.664 1.572 1.572 0 01.34 1.32z" class="prefix__cls-1" data-name="パス 401" transform="translate(-1346.284 -44.606)"/><path id="prefix__パス_402" d="M1362.237 94.2l-1.918 2.389a1.974 1.974 0 01-.664.565 1.2 1.2 0 01-1.277-.271 1.1 1.1 0 01-.457-1.068 1.984 1.984 0 01.4-.835l1.919-2.384-.537-.416-1.742 2.161a3.436 3.436 0 00-.682 1.247 2.094 2.094 0 002.667 2.161 3.285 3.285 0 001.088-.95l1.727-2.179z" class="prefix__cls-1" data-name="パス 402" transform="translate(-1343.483 -42.238)"/><path id="prefix__パス_403" d="M1362.441 98.469l-.5-4.67-.724-.334-2.126 4.473.584.282 1.706-3.623.559 4.7.673.319 2.133-4.483-.591-.272z" class="prefix__cls-1" data-name="パス 403" transform="translate(-1340.608 -40.243)"/><path id="prefix__パス_404" d="M1364.481 94.727l-1.931-.4-1.035 4.841 1.942.416a1.777 1.777 0 001.957-.746 3.12 3.12 0 00.585-1.323 2.69 2.69 0 00-.13-1.74 1.872 1.872 0 00-1.388-1.048zm.825 2.751a2.266 2.266 0 01-.156.5 1.987 1.987 0 01-.435.7 1.162 1.162 0 01-.718.365 1.8 1.8 0 01-.567-.051l-1.131-.243.795-3.712 1.147.227a1.353 1.353 0 011.012.743 2.481 2.481 0 01.053 1.471z" class="prefix__cls-1" data-name="パス 404" transform="translate(-1336.842 -38.901)"/><path id="prefix__パス_405" d="M1364.788 99.086l-.025-1.687 2.719-.035-.018-.579-2.709.042-.025-1.5 2.949-.035-.007-.6-3.59.038.055 4.957 3.645-.057v-.576z" class="prefix__cls-1" data-name="パス 405" transform="translate(-1332.851 -38.346)"/><path id="prefix__パス_406" d="M1369.7 94.8a1.858 1.858 0 00-1.694-.33l-1.919.47 1.191 4.818 1.911-.473a1.761 1.761 0 001.443-1.517 3.459 3.459 0 00-.043-1.459 2.738 2.738 0 00-.889-1.509zm.217 3.117a1.128 1.128 0 01-.483.644 1.648 1.648 0 01-.506.194l-1.144.281-.9-3.7 1.127-.276a1.288 1.288 0 011.232.22 2.471 2.471 0 01.695 1.3 3.964 3.964 0 01.087.514 2.228 2.228 0 01-.111.819z" class="prefix__cls-1" data-name="パス 406" transform="translate(-1329.737 -38.795)"/><path id="prefix__パス_407" d="M1370.1 93.376a1.184 1.184 0 01.066.817 2.852 2.852 0 01-.669.69l.263.378.945-.618 1.873 2.866.557-.363-2.631-4.031z" class="prefix__cls-1" data-name="パス 407" transform="translate(-1324.426 -40.787)"/><path id="prefix__パス_408" d="M1374.191 93.347a1.324 1.324 0 00-.562.092 1.305 1.305 0 00.061-.5.994.994 0 00-.342-.68 1.074 1.074 0 00-.879-.347 1.522 1.522 0 00-1.037.493 1.543 1.543 0 00-.534 1.05 1.262 1.262 0 00.386.94.951.951 0 00.672.312.91.91 0 00.447-.095 1.4 1.4 0 00-.112.779 1.274 1.274 0 00.365.68 1.339 1.339 0 001.121.46 1.9 1.9 0 001.134-.552 1.656 1.656 0 00.557-1.162 1.532 1.532 0 00-.427-1.07 1.233 1.233 0 00-.85-.4zm-1.906.815a.655.655 0 01-.562-.209.741.741 0 01.072-1.124.837.837 0 01.618-.294.732.732 0 01.511.2.761.761 0 01.214.554.833.833 0 01-.3.59 1.025 1.025 0 01-.553.283zm2.251 1.413a1 1 0 01-.759.342.892.892 0 01-.626-.3.828.828 0 01-.284-.69 1.061 1.061 0 01.34-.667 1.135 1.135 0 01.7-.337.907.907 0 01.713.309.82.82 0 01.251.692 1 1 0 01-.335.651z" class="prefix__cls-1" data-name="パス 408" transform="translate(-1322.254 -42.652)"/><path id="prefix__パス_409" d="M1375.27 91.1a3.358 3.358 0 00-1.2-.567 1.459 1.459 0 00-1.615.654 1.388 1.388 0 00-.268 1.249 1.743 1.743 0 00.713.989 1.615 1.615 0 001.149.312 1.446 1.446 0 00.991-.654 1.5 1.5 0 00.258-.608 1.086 1.086 0 00-.077-.667 3.027 3.027 0 01.961 1.2.875.875 0 01-.133.81.78.78 0 01-1.117.215l-.345.5a1.255 1.255 0 00.971.23 1.435 1.435 0 00.922-.672 1.537 1.537 0 00-.082-1.878 4.24 4.24 0 00-1.128-1.113zm-.613 1.6a.861.861 0 01-.639.439 1.116 1.116 0 01-.762-.232 1.166 1.166 0 01-.5-.667.848.848 0 01.171-.754.964.964 0 01.6-.409 1.116 1.116 0 01.815.227.992.992 0 01.491.72.949.949 0 01-.176.683z" class="prefix__cls-1" data-name="パス 409" transform="translate(-1320.329 -44.857)"/><path id="prefix__パス_410" d="M1376.072 90.79a7.174 7.174 0 01-.828-1.1 4.91 4.91 0 01-.47-.894l-.486-.212-1.362 3.081.564.24 1.081-2.44a10.576 10.576 0 00.874 1.451 8.42 8.42 0 002.105 2.036l.268-.613c-.409-.3-.705-.514-.874-.669a8.376 8.376 0 01-.872-.88z" class="prefix__cls-1" data-name="パス 410" transform="translate(-1319.1 -47.833)"/><path id="prefix__パス_411" d="M1399.632 95.837c-.056-.5-.135-1.022-.235-1.523a.176.176 0 00-.033-.082 15.55 15.55 0 00-.5-1.947 21.9 21.9 0 00-42.827 6.428c0 .34.028.677.036 1a21.895 21.895 0 0043.767-1c0-.465-.043-.93-.077-1.395-.01-.181-.01-.363-.023-.544-.022-.319-.078-.615-.108-.937zm-.562.92a.309.309 0 01.051.562c-.128.112-.45-.013-.45-.273s.146-.368.399-.289zm-.345-1.259c.585.846-.8.24-.948-.1s.598-.381.948.102zm-.107 2.7c.107.261-.424.409-.6 0-.152-.414.262-.767.599-.005zm-.874-.961a.441.441 0 01-.705-.424c.087-.327.409-.779.705-.5.47.454.368.674 0 .919zm.536-2.682q-.609.061-.8-.792c-.1-.567.468-.48.8-.12.309.324.414.868 0 .907zm-.991-4.831c.33.1.194.447.051.559a.312.312 0 01-.465-.268c0-.273.146-.388.414-.296zm-.013 1.929c.089-.473.225-.664.5-.209s.6.552.309 1.03c-.258.406-.667.388-1.065.169-.42-.229.169-.518.256-.995zm-.575 1.579a1.186 1.186 0 01-.038.8 1.089 1.089 0 00.179.792c.179.335-.115.47-.263.309a1.26 1.26 0 00-.409-.281.479.479 0 01-.082-.565.97.97 0 00-.107-.731.476.476 0 01.281-.593.349.349 0 01.438.263zm.054 2.984c-.092.253-.268.347-.585.245-.447-.125-.552-.764-.176-.871.36-.131.838.36.761.62zm-.317-4.885c-.189.422-.695.2-.981.169s-.345-.422-.171-.71a.575.575 0 01.68-.324.619.619 0 01.472.86zm-1.946 3.467c-.5.2-.588-.072-.578-.871s.82-.544 1.032-.135c.294.546.031.808-.454 1zm.294 1.022c-.189.092-.69.215-.667-.151a.491.491 0 01.667-.429c.487.199.196.498 0 .574zm-10.978.11a3.045 3.045 0 01-1.18-.358 1.867 1.867 0 01-.562-1.4c-.028-.536.035-1.088.035-1.494v-.023a.646.646 0 01.534-.391.461.461 0 01.59.419 1.538 1.538 0 00.171.485.852.852 0 00-.246.971c.123.235.429.222.664-.184a.964.964 0 00.138-.5.118.118 0 00.061 0c.58-.112.713-.281.976.176s.5.521.879.452a1.223 1.223 0 01.332-.013 3.027 3.027 0 00-.212.4 1.82 1.82 0 01-.784 1.122 2.785 2.785 0 01-1.396.332zm1.27.881c.077.181-.268.2-.4.281s-.2.258-.531.232c-.353-.028-.314-.447-.266-.6.023-.146.266-.268.531-.2-.004.003.581.095.666.281zm-9.386-1.216a.37.37 0 01.023.485c-.087.087-.235.291-.187.406a.346.346 0 01.021.391.3.3 0 00.13.422c.161.089.225.58-.028.657-.268.074-.373.424-.238.559a.332.332 0 010 .478c-.135.1-.107.227-.051.424s.1.723-.23.659-.225-.452-.486-.649c-.245-.2-.513-.158-.669-.419a.641.641 0 01.082-.909c.355-.286.626-.143.634-.531s-.23-.552-.45-.445-.646-.376-.955-.041a.668.668 0 01-1.149-.353c-.266-.9.508-1.369.751-1.183 0 0 .314.273.582.2a.651.651 0 01.718.1.472.472 0 00.769-.34c-.023-.347.212-.493.174-.886-.015-.4.279-.513.478-.424a.561.561 0 01.171.759c-.131.3-.223.504-.09.634zm-5.276.176c.166-.439.539-.511.718-.4.156.1.156.3-.031.59-.3.376.015.746-.319.807s-.544-.558-.368-1.002zm-.059-1.824c.133-.135.289-.02.437.12.309.271-.064.536-.212.4-.182-.14-.382-.395-.225-.525zm.6-.588a4.24 4.24 0 00-1.236.095.372.372 0 00-.1.585 1.246 1.246 0 01.263.544 2.419 2.419 0 01-.7-.3c-.146-.072-.35-.148-.572-.245a.843.843 0 00.067-.215c.01-.424-.138-1.078.168-1.428.327-.355.759-.493.907-.266a1.076 1.076 0 01.066.125c-.036.015-.066.02-.108.041-.421.243-.661.843-.273.922a.912.912 0 00.838-.429.969.969 0 00.613.186 1.535 1.535 0 001.26-.593.55.55 0 01.828-.049c.023.026.036.049.064.077a1.467 1.467 0 01.107.47c-.01.281.041.447.225.557a.682.682 0 00.731-.095v.015s.335-.3.439 0a6.314 6.314 0 01-.051.641 1.043 1.043 0 00-.018.235c-.079.452-.179.654-.618.713a5.933 5.933 0 01-1.7-.434v-.005a1.13 1.13 0 01-.639-.444c-.202-.312-.338-.657-.563-.708zm-1.438 2.705c-.171 0-.67-.089-.682-.309s.192-.319.55-.225c.725.17.449.535.13.53zm-5.362-1.586a2.362 2.362 0 00-.345.628.273.273 0 01-.424-.051c-.054-.1-.12-.135-.378-.148-.237-.02-.314-.036-.4-.181a.424.424 0 01.051-.488.65.65 0 01.544-.135 1.218 1.218 0 00.611-.23c.2-.125.419-.181.547 0s-.009.391-.208.6zm.028 2.034a.539.539 0 01-.743 0c-.212-.225.084-.634.332-.718s.411-.074.541.095c.144.188.029.441-.132.618zm-3.794-4c.064.115-.056.24-.164.273a.468.468 0 00-.276.222.348.348 0 01-.332.163c-.117-.01-.117-.115-.25-.276a.421.421 0 010-.511c.089-.171.225-.156.383-.156a.941.941 0 01.637.284zm.038-1.04a.265.265 0 01-.289.419c-.307-.049-.307-.327-.373-.5s.185-.418.66.08zm-.677 2.424a.824.824 0 00.582-.307c.217-.184.376 0 .284.141a1.315 1.315 0 00-.1.383.445.445 0 01-.447.194c-.212-.028-.352.089-.539.23a.387.387 0 01-.531-.095.3.3 0 01.12-.393 1.123 1.123 0 01.629-.149zm.291 1.487a.492.492 0 01-.506.347c-.192-.028-.332-.164-.2-.391.13-.209.253-.232.493-.22.002 0 .278.031.212.264zm-.915 2.373a.653.653 0 01.393-.268c.2-.056.322-.02.389.059a.378.378 0 01-.077.478.74.74 0 01-.6.151c-.203-.037-.203-.303-.106-.42zm.624-.917c-.159.02-.437-.033-.483-.151a.269.269 0 01.115-.365c.143-.1.368-.095.524-.163a1.539 1.539 0 00.34-.276.57.57 0 01.45-.118c.095.018.189.128.158.322a1.011 1.011 0 01-.343.491 1.387 1.387 0 01-.763.26zm.825.393a.42.42 0 01.44-.174c.276.015.35-.049.386-.1a.166.166 0 01.281.1c.023.225-.24.393-.427.478-.145.079-.419.243-.621.115a.287.287 0 01-.061-.419zm.789-1.931c-.345.1-.493-.087-.669-.245a.3.3 0 01.069-.473 2.752 2.752 0 00.345-.365.589.589 0 01.574-.11c.169.051.184.324.21.6a.63.63 0 01-.53.592zm-.322-2.9c-.041-.225.128-.309.317-.3a3.2 3.2 0 01.812.294c.214.156.171.381 0 .659s-.414.163-.723.194-.278-.222-.258-.419-.082-.208-.149-.429zm1.178-1.012c-.11.25-.4.11-.57.1s-.2-.243-.1-.409a.33.33 0 01.4-.194.37.37 0 01.269.498zm-.447-3.05a.348.348 0 01-.493-.383c0-.266.168-.485.493-.376.492.167.333.634-.001.754zm-.38 1.328c0 .146.1.179.043.381s-.245.092-.472 0a.693.693 0 01-.291-.761c.092-.276.253-.179.437-.135.199.053.281.348.281.511zm.365 6.336a.736.736 0 01.562-.567c.291-.049.393.11.419.248a.948.948 0 01-.544.792c-.344.102-.556-.146-.439-.476zm1.119-5.265c-.049-.164.158-.416.455-.061a5.145 5.145 0 00.651.843.436.436 0 01-.174.728c-.276.028-.554.008-.69-.255-.079-.151-.138-.271-.215-.391a.382.382 0 01-.077-.4.862.862 0 00.048-.469zm1.277-1.479a6.619 6.619 0 01.639.245c.266.138.173.409-.089.68s-.2.5-.4.605-.319-.23-.294-.409a1.06 1.06 0 00-.156-.657c-.141-.308.115-.536.299-.469zm-1.3 3.906a4.7 4.7 0 00.6-.245c.209-.077.337-.038.383.125s-.123.243-.314.243a.438.438 0 00-.352.227c-.207.2-.432.153-.508.023-.041-.1-.115-.338.187-.378zm1.681-.442c.291-.151.419-.34.427-.483.023-.138.1-.429.376-.294.4.2-.041.81-.041.81-.074.194-.026.524-.258.542a.943.943 0 01-.608-.128c-.166-.099-.197-.294.1-.452zm1.513-1.507c-.207.174-.555 0-.555 0-.258-.061-.386-.181-.37-.317s.031-.235.258-.319c.243-.084.319-.212.424.023.125.237.412.447.238.608zm.337 1c.2.135.1.662-.2.664s-.283-.324-.189-.539a.25.25 0 01.384-.129zm-1.38 2.5a.75.75 0 01.618-.046c.189.1.289.146.266.261s-.373.12-.5.2c-.107.084-.171.171-.324.184-.135.008-.286-.036-.243-.2.01-.164.025-.315.176-.399zm.552-1.142c.092-.115.237-.125.439-.135s.626.225.649.4c.043.171-.1.227-.649.227s-.551-.38-.443-.492zm.874-3.543a.408.408 0 01.49-.179s.536.074.618.25c.054.161-.25.186-.365.253s-.168.243-.485.215-.286-.404-.262-.54zm.158-3.5c.1-.289.238-.232.442-.115.181.115.214.784.181 1.053a.408.408 0 01-.685.209c-.31-.223-.06-.869.057-1.15zm.483 5.963c.24-.125.488-.107.5.072a.881.881 0 010 .253c-.01.235-.036.434-.286.539-.227.115-.406.1-.47 0s.041-.25.023-.4a.408.408 0 01.229-.467zm.071 1.842a.785.785 0 00.46-.572c.041-.176.279-.291.36-.089a1.105 1.105 0 01-.069.743.6.6 0 01-.57.378c-.263 0-.442.074-.544-.066s.076-.272.359-.397zm.5-2.726a.505.505 0 01-.549-.217c-.063-.135-.025-.255.079-.422a.288.288 0 01.391-.128s.358.138.539.189.138.225-.064.268-.205.22-.399.307zm-.225-2.424c.036-.462.281-.792.675-.715.639.138.562.531.253.828s-.959.358-.931-.117zm.869-3.3c.3.084.289.5 0 .835s-.475-.056-.437-.439.193-.474.434-.403zm.13-1.707c.34-.437 1.037.164 1.3.521.247.317-.054.628-.9.651s-.727-.742-.403-1.178zm.812 2.8c.437.015.268.483.184.907-.319 1.459-.7.125-.7.125-.623-.571.071-1.069.513-1.039zm-.383 4.1c.092-.232.248-.222.429-.153.284.125.36.427.041.6-.287.168-.578-.226-.473-.453zm2.629-5.058a.549.549 0 01-.851.2c-.322-.255-.028-.639.077-.871.084-.232.419-.2.639.018a.49.49 0 01.132.646zm.056 4c-.031.485-.427.5-.695.291s-.12-1-.085-1.351.281-.355.521-.135c.361.285.294.704.256 1.184zm-.521-2.979a.368.368 0 01.2.611c-.176.209-.442.294-.636 0-.295-.423.101-.711.433-.622zm-.11 4.45a.451.451 0 01.6.46c0 .309-.238.424-.483.516a.475.475 0 01-.6-.345c-.062-.317.166-.504.481-.642zm1.492-4.011c-.4.072-.424-.692-.276-1.155s.562-.516.774-.107a.833.833 0 01-.501 1.252zm-.1 2.792a.471.471 0 01.064-.685c.189-.061.317.02.381.243.089.294-.239.601-.453.432zm4.44-3.878c.481.736-.355 1.116-.781 1.081s-.041-.628.064-1.035c.088-.401.461-.457.709-.056zm-.406-2.062c.319-.266.554.22.7.605.166.432.138.483-.378.516s-.457-.123-.478-.434-.163-.436.148-.697zm-.457 3.541a.321.321 0 01.243.411c-.079.192-.281.215-.508.192a.3.3 0 01-.184-.468c.106-.186.27-.173.441-.145zm-1.3-1.814c-.59.069.059-.994.261-1.308s.48-.179.6.278c.247.862-.256.938-.864 1.02zm.593 1.405c-.174.368-.544.335-.971-.169-.4-.5.6-.812.927-.7.293.083.242.435.04.859zm-.255 2.151a.375.375 0 01-.531-.411c0-.281.189-.516.531-.381.502.154.335.652-.009.782zm-.94 1.377c.437.151.271.588.074.738a.416.416 0 01-.608-.353c-.004-.354.193-.512.53-.395zm-.414-1.873c.168-.066.3.013.373.235.089.312-.24.621-.455.455a.47.47 0 01.078-.699zm.393-.825a.27.27 0 01-.347-.276c.031-.174.123-.238.347-.238.253 0 .368.2.335.319-.017.114-.15.142-.339.186zm-.02-4.427c-.766-.163-.654-.457-.429-.869s.639-.611.92-.353c.805.694.248 1.373-.495 1.212zm-.265.524c.212 0 .373.141.459.422a.493.493 0 01-.314.6.573.573 0 01-.664-.24.552.552 0 01.13-.631.67.67 0 01.384-.161zm2.074 9.133c-.189.163-.309-.082-.322-.222-.049-.135.079-.378.24-.337.318.084.262.388.078.549zm.031-2.154c-.071-.227-.007-.628.245-.468a.6.6 0 01.143.871c-.171.088-.332-.19-.393-.413zm.366-1.147c-.532.1-.544-.327-.437-.657.079-.34.253-.491.506-.4a4.662 4.662 0 01.442.253c.255.148.015.69-.516.794zm.8-2.253a.4.4 0 01.72-.059c.268.575-.322 1-.8.927-.496-.091-.135-.51.074-.878zm3.893-2.43a.872.872 0 01-.289.976c-.169.135-.276-.171-.36-.508a.416.416 0 00-.585-.332c-.516.184-.623-.549-.572-1.03s.253-.7.572-.623c.457.118.335.687.4.879.064.174.335.118.335.118s.394-.154.493.511zm12.286 2.261c.194.258.25.457.089.674-.166.253-.516.184-.776.077a.677.677 0 01-.268-.884c.203-.336.765-.127.949.124zm-.531-1.888a.232.232 0 01.409.125c.059.245-.005.355-.212.511a.2.2 0 01-.327-.051.476.476 0 01.124-.599zm-.13 4.629c.181-.189.35-.24.478.061.184.508 0 .835-.411.692s-.245-.586-.074-.762zm-.255-.674c-.557.391-.787-.038-.812-.547-.028-.529.255-.539.618-.445.527.129.746.591.187.982zm-.383-3.331c-.161.549-.457.187-.848 0-.4-.169-.23-.5 0-.884.273-.432.7-.567 1.073-.141.376.438-.089.487-.232 1.015zm-1.173-1.377c-.233.089-.562-.123-.478-.347.054-.23.225-.253.478-.1.167.102.21.35-.007.437zm-.051 2.057c.375.031.465.169.562.5a.313.313 0 01-.273.4.661.661 0 01-.736-.429.366.366 0 01.44-.481zm-1.15 3.339c-.256-.258-.033-.639.224-.549a1.054 1.054 0 01.71 1.548c-.309.677-.72.542-.649.135a1.321 1.321 0 00-.292-1.145zm-.281 2.848c.079-.1.353-.169.419-.013.13.319-.138.465-.378.416s-.137-.298-.048-.413zm-.166-.508c-.2-.125-.021-.322.1-.4s.378-.038.4.12c.025.339-.282.392-.507.27zm1.19-4.1c.059.424-.286.613-.966.4-.651-.209.071-1.073.424-1.157.331-.102.469.251.536.749zm-1.134 2.261a.771.771 0 01-.552 1.236c-.6.135-.651-.355-.424-.524s.2-.243.424-.644c.221-.385.436-.276.545-.076zm-.886-1.737c-.013.294-.256.414-.69.174a.881.881 0 01-.526-.971.512.512 0 01.669-.422c.719.217.55.927.54 1.211zm-1.237-2a4.857 4.857 0 01-.6.261 2.865 2.865 0 00-.373.378.664.664 0 01-.511.2.311.311 0 01-.235-.358 1.221 1.221 0 01.348-.641 1.607 1.607 0 01.856-.409c.2-.043.524-.018.613.12a.318.318 0 01-.105.44zm-1.436-2.376c.247-.209.427-.015.516.284a.818.818 0 01-.268 1.045c-.6.36-.419-.215-.419-.215.191-.533-.114-.913.165-1.123zm-.2-.777c-.437-.324-.033-.659.278-.84a.546.546 0 01.723.12c.672.617-.575 1.029-1.009.712zm.215-1.3c-.705.059-.639-.294-.3-.932.314-.641.7-.309.986-.084.481.371.009.928-.691 1.005zm-.292 8.086c.412.37-.125 1-.493.915s-.3-.6-.1-.866.333-.288.585-.061zm-2.23.47c-.437-.4.659-1.137 1.007-1.487.332-.363.651.008.343.286-.281.284-.417.4-.37.731.08.811-.536.867-.988.459zm-.258-4.32c-.322-.36.064-.6.383-.718a.787.787 0 01.8.166c.2.174.227.491-.13.746a.732.732 0 01-1.061-.205zm1.053 1.975c-.343.095-.531-.419-.414-.749a.7.7 0 01.611-.432c.4-.079.291.049.641.268s.347.733 0 .733a2.418 2.418 0 00-.846.168zm.9-3.127c-.212.169-.478-.125-.59-.255-.13-.12.064-.35.164-.539a.329.329 0 01.61.046.669.669 0 01-.188.736zm-1-3.791c-.516-.066-.4-.72-.246-1.065s.381-.409.8-.253c.368.138.473.3.432.756s-.464.614-.991.55zm.11.9c.465-.028.812-.273.646.588s-.462.662-.884.388-.748-.508-.659-.838c.066-.327.48-.128.891-.151zm-.639 1.328s.343.092.37.611a.87.87 0 01-.557.932c-.33.156-.33-.639-.33-1.022s.149-.551.512-.533zm-.777-1.655c-.3.041-.544-.115-.314-.585s.549-.493.651-.284c.442.91-.342.856-.342.856zm-.273 1.446c-.028.34-.056.649-.442.559-.4-.089-.593-.153-.6-.429s.291-.294.345-.575.028-.674.381-.506c.359.141.317.795.311.938zm-.123 2.373c-.261.25-.565-.309-.491-.784.048-.46.3-.577.491-.411a.924.924 0 01-.005 1.183zm-.986-3.909a.685.685 0 01-.263-.958c.2-.166.409-.125.623.135.302.331 0 .916-.365.811zm-.164 5.779c-.289.156-.342.447-.738.567s-.169-.749.09-1.178c.243-.414.569-.2.71-.026a.4.4 0 01-.067.625zm-1.594-1.18c.148-.143.284-.079.337.074 0 0 .066.123-.1.519a.717.717 0 01-.782.542c-.329-.051-.207-.529.054-.664s.331-.328.486-.484zm-1.392-.1c-.483-.01-.465-.588-.225-.874s.386-.286.769-.156a.547.547 0 01.419.6c-.003.346-.48.423-.968.415zm-.056-3.288a.361.361 0 01.544-.061 1.029 1.029 0 01.057 1.078.373.373 0 01-.708-.112.844.844 0 01.102-.92zm-.156-.69c-.536.263-.606-.215-.424-.815.2-.613.274-.513.853-.588.478-.059.524.12.593.588.087.45-.488.55-1.027.801zm-.718 8.218c0-.194.138-.171.317-.143.12.028.207.186.238.521.013.34-.2.582-.383.565s-.255-.187-.2-.365a1.993 1.993 0 00.023-.592zm.36-1.811c-.2-.22.13-.363.407-.491.253-.123.3-.1.508.066.411.324.411.5.345.667s-.268.082-.664.225-.394-.269-.601-.481zm.8 1.52c.018-.227.138-.248.286-.332.283-.151.383.02.444.148a.823.823 0 00.4.4c.215.079.363.043.363.3s-.427.33-.615.36a1.192 1.192 0 01-.715-.2c-.233-.156-.191-.468-.165-.69zm1.03-.958c-.164-.363-.044-.756.393-.644.355.092.355.294.736.281s.432.2.325.363-.187.1-.567.312a.581.581 0 01-.887-.326zm1.234 1.643c.284-.355.085-.823.47-.968.531-.2.708.12.807.5.059.406.215.6-.449 1.014-.683.395-1.138-.21-.831-.56zm.92-1.837a.738.738 0 01-.133-1.073c.232-.268.385-.064.49.153a5.2 5.2 0 00.189.728c.118.362-.148.502-.549.178zm.47-2.6c.281-.307.587.158.687.445a5.035 5.035 0 01.166.858c.026.345-.135.506-.508.115s-.629-1.126-.348-1.428zm.317 3.132a1.536 1.536 0 00.312-.565c.046-.225.274-.381.383-.215.273.4-.1.838-.4 1.042-.324.185-.462-.124-.298-.272zm3.99 5.467c.227.026.414.258.217.468-.182.222-.639.151-.682-.112s.12-.402.462-.366zm-.5-2.739c-.171-.245-.13-.45 0-.935s.4-.761.743-.388c.37.368.133 1.168.133 1.168a.537.537 0 01-.882.146zm.225-3.012c.028-.5.2-.736.534-.631.81.273.692.8.268 1.224s-.847-.122-.808-.602zm1.29.531c.148-.284.327-.25.427-.156.8.726-.015 1.1-.47 1s-.124-.572.037-.853zm.041 1.216c.332.092.286.4.095.565s-.317-.084-.345-.225.082-.392.243-.349zm-.141 4.149a7.754 7.754 0 01.669-1.612c.021-.031.051-.082.077-.12a3.5 3.5 0 00.524-.064c.585-.12.756-.258.968.184a1.162 1.162 0 001.334.71h.02a2.677 2.677 0 00-.312.112 9.752 9.752 0 01-1.638.552 3.559 3.559 0 01-1.436.225c-.067 0-.146.013-.215.015zm3.081-1.926a.576.576 0 01.922-.2.548.548 0 010 .511c-.149.257-1.058.081-.928-.32zm.83-1.395a.379.379 0 01-.536-.4c.026-.278.2-.519.536-.393.508.168.343.656-.006.784zm.158-1.655c-.245-.258.021-.754.437-.365.945.863.424 1.469.146 1.3-.22-.143-.341-.682-.588-.943zm.861 1.638c.393-.217.391-.549.736-.47.223.051.373.253.542.521.171.284-.01.488-.493.462s-.874.184-1.1 0-.081-.314.309-.523zm1.173 1.231c.491.13.557.644 0 .623s-1.093.051-1.012-.258c.056-.319.485-.518 1.006-.375zm-.271 1.15s.5-.112.657.2-.163.5-.641.424-.239-.573-.022-.634zm.664-7.935c.031-.373-.079-1.1.391-.692.493.4 1.132 1.74.107 1.4a.6.6 0 01-.504-.718zm.711 3.98c.48.626.383 1.328-.051 1.4s-.547-.715-.611-1.226.4-.48.656-.184zm-.1-1.362c.2-.169.424-.128.621.133.3.355.01.932-.342.818a.663.663 0 01-.29-.961zm.744 2.657c0-.511.268-.332.511-.271.363.1.342.549 0 .8s-.494-.025-.522-.539zm1.05-5.521c.281.171.358.565 0 .705-.373.151-.889-.2-.782-.554s.367-.418.77-.16zm.547 2.036c.192.35 0 .605-.613.33a3.02 3.02 0 00-1.277-.13c-.7.015-.634-.5-.345-.582.345-.1.534-.166.858-.261a1.063 1.063 0 011.365.634zm-1.89-3.342c.166-.056.294.013.37.243.1.3-.235.616-.437.442a.463.463 0 01.055-.694zm-2.726-2.161c.81-.151.9.1.861.353-.021.255-.547.125-.534.365s.483.628.777.363c.278-.263.769-.391.958 0s-.455.866-.958.682c-.294-.107-.371-.22-1.1-.506s-.824-1.12-.016-1.266zm-1.679-.659a2.122 2.122 0 00.115-.508.619.619 0 01.457-.4c.192-.043.35.189.508.445a.671.671 0 01-.158.807c-.245.273-.5.189-.736.135a.306.306 0 01-.198-.488zm-.6 3.812c-.465-.066-.848-.4-.588-.582a.792.792 0 01.994-.1c.595.404.027.741-.418.672zm.05-3.232a1.8 1.8 0 00.248.416.459.459 0 01-.138.531.906.906 0 00-.2.682.473.473 0 01-.49.414.337.337 0 01-.278-.414 1.259 1.259 0 01.34-.695.986.986 0 00.176-.772c-.039-.362.262-.376.331-.171zm-.978-2.212c.238-.475.608-.713.723-.445.222.536-.419 1.341-.419 1.341-.338.678-.553-.418-.315-.906zm.4 5.855a.508.508 0 01-.194.971c-.552.041-.856-.565-.618-.876s.37-.344.797-.104zm-1.065-6.847a.641.641 0 010 .953c-.424.319-.8.005-.8-.445s.376-.811.785-.517zm-.45 2.005a.361.361 0 01.554.11 1.213 1.213 0 01-.247 1.183c-.335.271-.693.051-.708-.37a.9.9 0 01.386-.931zm.194 2.974c.266.6-.268.649-.541.953s-.733.217-.585-.079a1.213 1.213 0 00.064-.894c-.1-.268-.125-.529.084-.634.35-.208.697.037.963.645zm-1.66-5.85a.45.45 0 01.692.115 1.382 1.382 0 01-.335 1.4.513.513 0 01-.881-.414 1.11 1.11 0 01.508-1.11zm-1.408-.636a.551.551 0 01.337-.135.47.47 0 01.432.37.454.454 0 01-.289.539.517.517 0 01-.593-.2.484.484 0 01.098-.583zm-.319 1.03c.161.125.207.317 0 .442a.45.45 0 01-.562-.069s-.212-.171-.034-.335a.475.475 0 01.581-.048zm-1.221-1.553c.424.01.756-.02.807.34a.668.668 0 01-.3.723c-.314.245-.771.565-.907.123-.127-.452-.042-1.216.384-1.196zm-.442 1.934c.319.493.1.761-.291 1.122s-.539-.12-.735-.478-.2-.549.266-.787.547-.168.76.143zm-1.1-2.289c.253 0 .329.072.562.278s.038.468-.148.414c-.251-.064-.491.174-.718.189s-.207-.1-.35-.363.389-.515.654-.515zm-.531 1.392a.32.32 0 01.187.419c-.049.194-.263.381-.347.562a3 3 0 00-.089.521.649.649 0 01-.307.457.308.308 0 01-.391-.166 1.139 1.139 0 01-.087-.713 1.618 1.618 0 01.478-.828c.133-.147.429-.315.559-.249zm-1.178-1.517c.15-.112.355-.118.411.125a.426.426 0 01-.192.519s-.22.171-.342-.056a.485.485 0 01.127-.585zm-.228 5c.074-.388.355-.588.636-.388a.656.656 0 01-.179 1.183c-.432.104-.53-.387-.453-.79zm-1.558-2.813s.917-.478.547-.646-.233-1.1-.1-1.517c.118-.429.427-.322.6-.184s.133.731.115 1.058a1.232 1.232 0 01-.173.662c-.154.232-.154.209.266.347s-.092.731-.335.9-.409.792-.835.45a.714.714 0 01-.081-1.065zm-.922-2.332a.359.359 0 01.669.115.786.786 0 01-.135.843c-.2.207-.388.148-.483.049a.939.939 0 01-.047-1.002zm-.01 1.661c.079.166.079.337-.148.687a1.329 1.329 0 00-.156 1.1c.079.565-.082 1.007-.549.6s-.572-.828-.406-1.1a10.405 10.405 0 00.488-1.06c.212-.381.626-.58.774-.223zm-1.313-1.714c.419-.217.452.355.526.664s-.077.4-.209.4c-1.077-.013-.715-.838-.314-1.06zm.35 4.644c.5.575.4.848-.2.764-.572-.061-1.132-.324-.731-.764a.547.547 0 01.934.004zm-1.07-1.145a4.163 4.163 0 00-.416.72c-.146.227-.307.286-.48.166s-.079-.347.12-.485c.192-.153.176-.332.194-.519.033-.342.317-.491.5-.4a.3.3 0 01.085.523zm-.35-3.244c.215.138.23.253.215.511 0 0-.026.258-.268.2a.494.494 0 01-.34-.508c.03-.183.181-.334.396-.199zm-.319 1.607c.436.128.373.549.107.761s-.422-.11-.452-.3.12-.511.348-.457zm-.585 1.786c-.13.115-.45-.013-.45-.276s.13-.373.4-.284a.31.31 0 01.052.564zm-.718-2.915c.156-.184.5-.4.639.079.054.2.255.69 0 .766a.446.446 0 01-.552-.141c-.102-.145-.235-.508-.084-.7zm-1.147-.015c.3-.245.547.232.587.516a3.98 3.98 0 01.061.858c-.031.324-.2.455-.5.033s-.462-1.153-.145-1.403zm.48 2.882s.082.192.539.5c.475.317-.128.741-.432.685s-.414-.143-.766.082-.884.393-.866-.258c.034-.659.554-.743.728-.925.196-.172.723-.425.796-.08zm-1.2-2.085c.715 1.454-.212 1.735-.253 1.321a13.945 13.945 0 00-.309-1.423c-.088-.401.316-.415.569.106zm-1.04 5.076c.084-.455.273-.432.46-.529a1.2 1.2 0 011.313.082c.378.261-.069.46-.307.851-.243.411-.4-.018-.9.151s-.635-.083-.559-.551zm-.153 5.9c-.353.572-.922.2-1.078-.13a.613.613 0 01.725-.749c.491.113.645.442.36.882zm-.483-10.651c.082-.171.248-.284.414-.1.2.176.179.3.1.542 0 0-.095.253-.309.13a.472.472 0 01-.198-.569zm-.138 1.612c.182-.186.363-.084.483.1a4.2 4.2 0 01.235.961c-.02.284-.263.383-.631.4s-.414-.294-.634-.559.031-.4.245-.5c.207-.092.13-.222.309-.399zm-.5-1.275a.729.729 0 01-.151.866c-.235.212-.685-.355-.649-.6.013-.231.62-.572.804-.262zm-.45 2.861c.513.151.7.536.314.9-.406.376-.516-.169-.651-.381-.111-.219-.062-.615.341-.515zm-1.3-2.09c.715-.133 1.045.853.739 1.175-.289.337-.7.429-.874.038-.157-.325-.581-1.058.139-1.209zm-.082 4.33a1.053 1.053 0 01-.695.871c-.4.112-.319-.235-.371-.628a1.445 1.445 0 01.187-.917.37.37 0 01.422-.266c.702-.019.494.566.461.944zm-.876-3.227c.363.468.57 1.042-.03 1.063-.572.026-.669-.345-.651-.654.064-.748.322-.882.685-.404zm-.485 6.433c.271.169.347.927-.1.749-.373-.141-.629.1-.864-.036s-.1-.335.289-.628.602-.121.681-.081zm-.355-1.078c.015.23-.041.406-.521.49s-.174-.58-.074-.984.373-.255.445-.1a1.687 1.687 0 01.154.6zm-1.213-4.118c.155-.263.406-.3.746-.1.46.3.373 1.053-.082 1.068s-.837-.693-.661-.964zm.705 1.862a.638.638 0 010 .978c-.424.33-.81.01-.81-.455s.399-.822.813-.518zm-1.267-1.188a.316.316 0 01.059.565c-.135.123-.455-.008-.455-.263s.139-.374.399-.297zm-.529 3.674a1.61 1.61 0 00.168-.968c-.12-.445-.087-.577.248-.266a1.505 1.505 0 01.424.662c.169.386.1.616-.363.756s-.553.02-.474-.18zm-.161 1.267c.222-.046.253.253.253.559s-.123.3-.417.562-.345-.179-.434-.383a.518.518 0 01.148-.549c.108-.126.226-.131.453-.18zm-1.416-3.16c.138-.24.363-.271.649-.089.4.253.327.917-.056.93-.408.011-.732-.607-.589-.837zm-.869 1.1a.366.366 0 01.593-.118.652.652 0 01.255.485c.051.327-.13.416-.422.381-.273-.038-.4.146-.639.033-.266-.152.024-.49.217-.776zm-.368 1.569c.286.169.35.536 0 .68s-.843-.189-.725-.529c.096-.327.336-.376.729-.151zm-1.318 1.364c.166-.1.353-.046.537.174a6.819 6.819 0 00.781.736c.286.207.35.238.37.432.038.184-.3.23-.506-.064a.534.534 0 00-.618-.253.718.718 0 01-.652-.391.454.454 0 01.092-.629zm-.769 1.709c.13-.253.46-.22.779 0s.422.58.156.634c-.278.069-.212.4-.4.49-.161.092-.518-.176-.629-.355a1.012 1.012 0 01.098-.764zm-.134 5.554c-.227-.082-.335-.2-.225-.577a1.335 1.335 0 01.524-.695.172.172 0 01.3.059 1.752 1.752 0 01.115.289.545.545 0 01-.1.4c-.087.171-.02.215-.049.4-.01.216-.342.216-.565.124zm.281 1.408c-.11.25-.506.452-.684.649-.2.179-.575.419-.756.238a.466.466 0 01.263-.728c.291-.095.375-.447.6-.605.36-.247.769-.004.577.446zm-.8-5.2c-.038-.235.158-.309.437-.038.255.271.283.255.365.35.1.11.167.273.1.381a.54.54 0 01-.465.207c-.3.026-.534-.079-.578-.33s.16-.334.139-.567zm-.457 1.778c.168-.151.266-.151.562-.148s.332.284.148.365c-.2.1-.227.391-.36.544-.151.135-.214.059-.483-.038-.252-.073-.051-.564.131-.72zm-.343 2.105c.064-.189.082-.232.279-.268s.187.092.212.215.074.11.118.207a.178.178 0 01-.066.235.391.391 0 01-.355.077.347.347 0 01-.189-.462zm42.669 2.537a21.411 21.411 0 01-42.794.585.211.211 0 00-.012-.089 3.191 3.191 0 001.16-.539c.652-.513.915-.506 1.372-.4a1.209 1.209 0 001.066-.215 1.247 1.247 0 01.746-.33 2.013 2.013 0 00.989-.519c.314-.284.715-.616 1.111-.5a1.788 1.788 0 001.063.082 1.862 1.862 0 00.838-.674 1.9 1.9 0 01.906-.856c.2-.051.557-.1.917-.161a12.94 12.94 0 011.627.958c.659.319 1.3.662 1.965.912a13.834 13.834 0 011.783.636c.564.291.3.107.644.388 0 0 .409.263.386.442a1.774 1.774 0 000 .5c-.113.6-.092 1.088-.189 1.331a2.3 2.3 0 00-.141.71c-.054.34-.074.5-.118.764a1.618 1.618 0 01-.276.6c-.092.171-.118.567-.307.68a2.128 2.128 0 01-.774.227 2.393 2.393 0 00-.794.171 2.512 2.512 0 01-.838.3c-.294.043-.677.056-1.035.11a3.375 3.375 0 01-.82.079 7.173 7.173 0 01-1.009-.169 1.127 1.127 0 00-.715.1.349.349 0 00-.158.462.768.768 0 00.646.391 4.475 4.475 0 00.92.074c.284-.01.83 0 1.2 0a6.284 6.284 0 001.354-.087 8.322 8.322 0 011.185-.312 2.172 2.172 0 01.654-.049 4.139 4.139 0 01.718.2c.143.033.828.095 1.168.115a10.269 10.269 0 001.121.031l1.53-.156c.81 0 .682-.634.314-.736a2.524 2.524 0 00-.766.118 1.645 1.645 0 01-1.144-.284.861.861 0 01-.005-.8 1.531 1.531 0 000-1.063 1.2 1.2 0 01-.087-.542 1.135 1.135 0 01.21-.526.68.68 0 01.866-.215.447.447 0 01.2.47c-.082.3-.263.34-.271.534-.038.207.007.25.1.45a.451.451 0 01-.051.593c-.3.33-.092.6.2.641a2.658 2.658 0 00.789-.143.621.621 0 00.322-.649c-.026-.253-.3-.324 0-.634.322-.319.189-.672.189-.948s.074-.261.182-.565-.2-.552-.35-.34c-.159.23-.266-.664-.13-.833a1.349 1.349 0 00.3-.542c.089-.258.153-.153.051-.5-.079-.342-.238-.146-.363-.2-.322-.13-.2-.761-.092-1.213.115-.432.345.023.623.439.294.4.3-.529.209-.9-.087-.35.087-1.081-.02-1.4a1.371 1.371 0 010-1.1 4.445 4.445 0 00.146-1.364.815.815 0 01.917-.312 2.2 2.2 0 01-.028.45 1.853 1.853 0 01-.225.754.619.619 0 00.12.741c.138.064.069.212-.036.383s-.135.368 0 .462-.033.059 0 .427a1.238 1.238 0 010 .565c-.054.381-.11.715.169.71s.491-.123.575.1.182.708.383.6a.693.693 0 00.386-.7 9.107 9.107 0 01-.184-1.275 4.3 4.3 0 01.046-1.06 1.627 1.627 0 000-.958 4.381 4.381 0 01-.095-.582 1.481 1.481 0 001.035.3.177.177 0 01-.061.146.739.739 0 00-.1.795c.1.235.529.358.2.733-.26.289-.1.705.325.639.488-.069.667.028.58.376-.1.378.215.445.419.434 1.027-.049 1.022 1.167.411 1.3a3.024 3.024 0 00-.935.35.805.805 0 00-.24.966c.136.209.271.391.082.657a.667.667 0 00-.082.746.68.68 0 01.028.8 1.27 1.27 0 00-.159 1.175c.189.342.4.774.159.958s-.248.1-.634.033-.585.066-.72-.278.268-.266.238-.664a2.083 2.083 0 01-.026-.4c0-.4.319-.764.174-1.247-.118-.475.276-.585.094-.958s-.547-.45-.6-.825c-.038-.376-.118-.644-.519-.613s-.082 1.783-.158 2.4a2.579 2.579 0 00-.054 1.178 1.247 1.247 0 01.092.669c-.036.531-.25.562-.133.823s.01.411-.309.434c-.322.038-.68.174-.746.457s.319.3.542.238c.319-.092.843-.238 1.06-.1a2.454 2.454 0 00.93.368c.427.041 1.065.135 1.423.161a11.578 11.578 0 002.243-.135 4.976 4.976 0 011.993-.166 6.847 6.847 0 001.444.427 15.854 15.854 0 011.707.008 12.675 12.675 0 001.849.158c.368-.036.771-.077.633-.337s-.38-.227-.848-.424a2.131 2.131 0 00-1.367-.324 11.052 11.052 0 01-1.323.13 2.766 2.766 0 01-1.142-.508 2.781 2.781 0 00-1.489-.4 8.044 8.044 0 01-1.845.135c-.38-.1-1.04-.324-1.241-.8a2.154 2.154 0 01-.2-1.183 4.744 4.744 0 000-1.931 2 2 0 01.09-.588 2.276 2.276 0 01.473-.743 2.008 2.008 0 01.923-.294c.442-.033.935-.171 1.4-.235a20.125 20.125 0 003.1-.626c.6-.235 1.07-.457 1.543-.631a9.03 9.03 0 011.367-.337c.135.34.667.649 1.625.273 1.114-.46 1.361-.378 1.8.22a1.7 1.7 0 001.351.858c.59.095.93.041 1.111.478.2.432.368.881.984.787a1.858 1.858 0 01.971.2.138.138 0 00-.009.095z" class="prefix__cls-1" data-name="パス 411" transform="translate(-1345.352 -66.129)"/></g><g id="prefix__グループ_22" data-name="グループ 22" transform="translate(82.563 42.588)"><path id="prefix__パス_412" d="M1399.194 89.3c-2.488.043-4.044.792-5.066 2.057a6.355 6.355 0 00-1.4 4.042 6.237 6.237 0 001.438 4.379 6.35 6.35 0 004.721 1.888 6.167 6.167 0 005.03-1.852 6.42 6.42 0 001.586-4.325 5.667 5.667 0 00-1.055-3.891 6.465 6.465 0 00-5.254-2.298zM1402 99.487a3.335 3.335 0 01-2.754 1.428 3.87 3.87 0 01-3.1-1.655 6.428 6.428 0 01-.989-3.735 6.811 6.811 0 011.162-4.042 3.4 3.4 0 012.78-1.426 3.444 3.444 0 013.071 1.653 7.153 7.153 0 011 3.9 5.8 5.8 0 01-1.17 3.877z" class="prefix__cls-1" data-name="パス 412" transform="translate(-1370.88 -89.302)"/><path id="prefix__パス_413" d="M1408.827 89.3c-2.488.043-4.047.792-5.071 2.057a6.436 6.436 0 00-1.407 4.042 5.755 5.755 0 006.172 6.267 6.189 6.189 0 005.033-1.852 6.5 6.5 0 001.594-4.325 5.7 5.7 0 00-1.063-3.891 6.472 6.472 0 00-5.258-2.298zm2.81 10.183a3.36 3.36 0 01-2.759 1.428 3.854 3.854 0 01-3.1-1.655 6.387 6.387 0 01-.986-3.735 6.685 6.685 0 011.157-4.042 3.4 3.4 0 012.784-1.426 3.448 3.448 0 013.068 1.653 7.19 7.19 0 01.991 3.9 5.786 5.786 0 01-1.155 3.881z" class="prefix__cls-1" data-name="パス 413" transform="translate(-1355.924 -89.302)"/><path id="prefix__パス_414" d="M1455.628 89.513c-.958 0-1.916-.072-1.916-.072v.13a1.665 1.665 0 01.825.327c.319.278.209.593-.025 1.137a18.792 18.792 0 01-1.467 2.4 12.154 12.154 0 01-.93 1.3s-.552-.764-1.464-2.184c-.682-1.055-1.405-2.1-1.211-2.573.174-.386.812-.409.812-.409v-.13a18.777 18.777 0 01-2.223.072 9.926 9.926 0 01-1.919-.072l-.008.13a1.377 1.377 0 01.647.261 2.716 2.716 0 01.736.912c.731 1.2 2.948 5.04 2.948 5.04v1.2c0 .677-.015 1.6-.051 2.238a1.929 1.929 0 01-.37 1.364 1.132 1.132 0 01-.733.414v.13a19.222 19.222 0 012.264-.072 16.074 16.074 0 012.169.072V101a1.131 1.131 0 01-.736-.414 1.944 1.944 0 01-.373-1.364 46.903 46.903 0 01-.038-2.238v-1.225s3.2-5 3.607-5.487a1.681 1.681 0 011.16-.7v-.13a15.676 15.676 0 01-1.704.071z" class="prefix__cls-1" data-name="パス 414" transform="translate(-1287.894 -89.087)"/><path id="prefix__パス_415" d="M1399.906 89.441a15.687 15.687 0 01-1.7.072c-.958 0-1.926-.072-1.926-.072v.13a1.7 1.7 0 01.838.327c.322.278.2.593-.028 1.137a18.915 18.915 0 01-1.461 2.4 10.913 10.913 0 01-.945 1.3s-.534-.764-1.451-2.184c-.68-1.055-1.413-2.1-1.211-2.573.158-.386.807-.409.807-.409v-.13a18.834 18.834 0 01-2.223.072 10.065 10.065 0 01-1.926-.072v.13a1.366 1.366 0 01.646.261 2.555 2.555 0 01.723.912c.741 1.2 2.953 5.04 2.953 5.04v1.2c0 .677-.005 1.6-.033 2.238a1.993 1.993 0 01-.376 1.364 1.157 1.157 0 01-.741.414v.13a19.408 19.408 0 012.269-.072 16.047 16.047 0 012.166.072V101a1.154 1.154 0 01-.738-.414 1.98 1.98 0 01-.373-1.364 58.126 58.126 0 01-.046-2.238h.005c.013-.192.013-1.229.013-1.229s3.193-5 3.6-5.487a1.686 1.686 0 011.165-.7z" class="prefix__cls-1" data-name="パス 415" transform="translate(-1377.179 -89.087)"/><path id="prefix__パス_416" d="M1431.156 89.441v.13a1.565 1.565 0 01.795.37c.427.409.159 1.022.061 1.341s-1.512 4.167-1.512 4.167l-1.446 3.942-1.839-4.77-1.6-3.827c-.386-1.04.347-1.224.347-1.224v-.13a16.909 16.909 0 01-1.786.072c-1.191 0-2.131-.072-2.131-.072v.13a1.457 1.457 0 011.234 1.045l4.141 10.518h2.215s3.622-9.741 3.763-10.134a2.388 2.388 0 01.552-.991 1.391 1.391 0 01.848-.437v-.13s-.639.072-1.834.072a17.69 17.69 0 01-1.808-.072z" class="prefix__cls-1" data-name="パス 416" transform="translate(-1325.293 -89.087)"/><path id="prefix__パス_417" d="M1418.975 89.441v.13a.962.962 0 01.649.414 2.13 2.13 0 01.33 1.364c.041.639.041 1.561.041 2.238v2.018a6.684 6.684 0 01-.562 3.283 3.332 3.332 0 01-3.27 1.29 2.957 2.957 0 01-2.5-1.571 7.151 7.151 0 01-.44-3v-2.02c0-.677.005-1.594.038-2.238a2.176 2.176 0 01.329-1.364.97.97 0 01.657-.414v-.13a21.77 21.77 0 01-2.235.077 12.3 12.3 0 01-1.937-.077v.13a.96.96 0 01.646.414 2.159 2.159 0 01.332 1.364c.028.644.041 1.561.041 2.24v2.465a6.339 6.339 0 00.664 3.26 3.922 3.922 0 001.645 1.523 6.6 6.6 0 003.222.649 5.04 5.04 0 002.682-.787 3.582 3.582 0 001.285-1.4 7.324 7.324 0 00.58-3.3v-2.412c0-.677.018-1.6.049-2.238a2.027 2.027 0 01.33-1.364.937.937 0 01.638-.414v-.13s-.7.072-1.607.072-1.607-.072-1.607-.072z" class="prefix__cls-1" data-name="パス 417" transform="translate(-1343.91 -89.087)"/><path id="prefix__パス_418" d="M1420.168 89.441v.13a1.072 1.072 0 01.7.414 2 2 0 01.363 1.364c.049.639.049 1.561.049 2.238v3.306c0 .677 0 1.691-.038 2.332a1.978 1.978 0 01-.363 1.364 1.059 1.059 0 01-.695.414v.13a17.594 17.594 0 012.171-.072 14.44 14.44 0 012.062.072V101a1.078 1.078 0 01-.708-.414 2.014 2.014 0 01-.355-1.364 53.805 53.805 0 01-.046-2.332v-3.303c0-.677.013-1.6.046-2.238a1.959 1.959 0 01.373-1.364 1.056 1.056 0 01.7-.414v-.13a16.888 16.888 0 01-2.153.072 15.518 15.518 0 01-2.106-.072z" class="prefix__cls-1" data-name="パス 418" transform="translate(-1328.217 -89.087)"/><path id="prefix__パス_419" d="M1439.806 89.441v.13a1.065 1.065 0 01.705.414 1.956 1.956 0 01.362 1.364c.034.639.041 1.561.041 2.238v3.306c0 .677 0 1.691-.031 2.332a2.026 2.026 0 01-.355 1.364 1.088 1.088 0 01-.707.414v.13a17.647 17.647 0 012.166-.072 14.39 14.39 0 012.066.072V101a1.056 1.056 0 01-.7-.414 2.016 2.016 0 01-.363-1.364 53.62 53.62 0 01-.054-2.332v-3.303c0-.677.021-1.6.056-2.238a2.007 2.007 0 01.36-1.364 1.077 1.077 0 01.707-.414v-.13a16.643 16.643 0 01-2.146.072 15.491 15.491 0 01-2.107-.072z" class="prefix__cls-1" data-name="パス 419" transform="translate(-1297.686 -89.087)"/><path id="prefix__パス_420" d="M1408.573 89.4s-.24.2-1.487.2h-7.5c-1.265 0-1.51-.2-1.51-.2h-.1a5.551 5.551 0 01.064 1.323c-.023.639-.064 1.226-.064 1.226h.1a4.3 4.3 0 01.751-1.211 2 2 0 011.326-.314c.312-.015.932-.015 1.548-.015h.621v6.65c0 .677-.018 1.6-.051 2.238a1.985 1.985 0 01-.358 1.364 1.081 1.081 0 01-.71.414v.13a17.967 17.967 0 012.184-.072 15.358 15.358 0 012.105.072v-.13a1.08 1.08 0 01-.705-.414 1.988 1.988 0 01-.36-1.364 39.955 39.955 0 01-.051-2.238c.01-.57.01-1.014.01-1.014l.01-5.636h.552s1.236 0 1.556.015a2.022 2.022 0 011.329.314 4.407 4.407 0 01.743 1.211h.1s-.038-.588-.046-1.226a6.066 6.066 0 01.046-1.323z" class="prefix__cls-1" data-name="パス 420" transform="translate(-1362.722 -89.157)"/><path id="prefix__パス_421" d="M1452.382 89.341s-.243.337-1.5.337h-7.5c-1.254 0-1.5-.337-1.5-.337h-.1a8.24 8.24 0 01.056 1.464c-.008.639-.056 1.226-.056 1.226h.1a4.237 4.237 0 01.746-1.211 2.022 2.022 0 011.328-.314c.319-.015.935-.015 1.546-.015h.613v6.65c0 .677 0 1.6-.028 2.238a2.106 2.106 0 01-.373 1.364 1.081 1.081 0 01-.705.414v.13a17.923 17.923 0 012.184-.072 15.337 15.337 0 012.1.072v-.13a1.078 1.078 0 01-.708-.414 2.018 2.018 0 01-.363-1.364 54.29 54.29 0 01-.048-2.238c.015-.57.015-1.014.015-1.014l.005-5.636h.554s1.234 0 1.545.015a2.017 2.017 0 011.333.314 4.268 4.268 0 01.749 1.211h.1s-.041-.588-.056-1.226a8.553 8.553 0 01.056-1.464z" class="prefix__cls-1" data-name="パス 421" transform="translate(-1294.617 -89.242)"/><path id="prefix__パス_422" d="M1423.564 89.441v.13a.973.973 0 01.66.414 2.2 2.2 0 01.327 1.364c.028.639.046 2.049.046 2.728v3.467l-6.492-8.083a11.124 11.124 0 01-1.254.051c-.258 0-.5-.005-.718-.013-.534-.023-.9-.059-.9-.059v.13a.98.98 0 01.651.414 2.1 2.1 0 01.334 1.364c.028.639.049 1.576.049 2.253v3.375c0 .672-.016 1.607-.044 2.248a2.155 2.155 0 01-.329 1.364.977.977 0 01-.649.414v.13a11.412 11.412 0 011.6-.072c.9 0 1.635.072 1.635.072V101a.98.98 0 01-.662-.414 2.156 2.156 0 01-.334-1.364 58.945 58.945 0 01-.043-2.248v-3.382c0-.419 0-1.17.015-1.655l7.434 9.2h.968a21.749 21.749 0 01-.076-2.894v-4.165c0-.68 0-2.09.041-2.728a2.132 2.132 0 01.329-1.364.968.968 0 01.654-.414v-.13a14.851 14.851 0 01-1.622.072 13.449 13.449 0 01-1.62-.073z" class="prefix__cls-1" data-name="パス 422" transform="translate(-1335.897 -89.087)"/><path id="prefix__パス_423" d="M1436.961 98.479a2.076 2.076 0 01-2.228 1.52c-.312.02-1.543.015-1.543.015h-2.672V95.6c.695 0 1.929.01 2.552.038a2.2 2.2 0 011.377.335.963.963 0 01.4.651h.13A13.729 13.729 0 011434.9 95a12.474 12.474 0 01.077-1.612h-.13a.96.96 0 01-.4.649 2.179 2.179 0 01-1.377.335c-.623.031-1.857.046-2.552.046v-3.983h2.223s1.229-.005 1.546.01a2.656 2.656 0 011.331.314 2.861 2.861 0 01.889 1.214h.1s-.056-.657-.056-1.3a11.937 11.937 0 01.056-1.247h-.1a7.541 7.541 0 01-1.356.046c-.493 0-1.2.033-1.707.033 0 0-3.7.026-4.131.026a15.66 15.66 0 01-2.1-.072v.13a1.07 1.07 0 01.705.414 1.956 1.956 0 01.363 1.364c.033.639.051 1.561.051 2.238v3.306c0 .677 0 1.691-.043 2.332a2 2 0 01-.36 1.364 1.048 1.048 0 01-.69.414v.13a17.461 17.461 0 012.169-.072l3.929.005h.542c.534 0 1.237.033 1.727.033a7.634 7.634 0 011.362.046h.094a10.817 10.817 0 01-.051-1.311c0-.639.051-1.377.051-1.377z" class="prefix__cls-1" data-name="パス 423" transform="translate(-1317.273 -89.107)"/><path id="prefix__パス_424" d="M1442.451 95.307c-.4-.207-1.834-.93-2.588-1.4-1.3-.8-1.518-1.265-1.566-1.873a1.611 1.611 0 011.658-1.724 3.184 3.184 0 012.143.674 5.487 5.487 0 011.469 1.638h.192a10.016 10.016 0 01-.059-1.331c0-.948.059-1.492.059-1.492h-.092s-.136.4-.391.4c-.35 0-.851-.393-1.737-.613a5.094 5.094 0 00-3.763.332 2.778 2.778 0 00-.442 4.606 24.21 24.21 0 002.933 1.765c1.577.889 2.067 1.326 1.962 2.366-.077.623-.69 1.719-2.593 1.563a3.855 3.855 0 01-3.3-2.736h-.22a15.211 15.211 0 01.077 1.719c0 1.116-.077 2.031-.077 2.031h.22a.9.9 0 01.71-.414 3.257 3.257 0 011.336.327 6.233 6.233 0 003.482.031 3.355 3.355 0 002.47-2.744 3.087 3.087 0 00-1.883-3.125z" class="prefix__cls-1" data-name="パス 424" transform="translate(-1303.424 -89.182)"/><path id="prefix__パス_425" d="M1440.866 99.805c-.284-.34-2.4-3.313-2.741-3.812.09-.026.191-.051.3-.074a3.348 3.348 0 002.825-3.334 2.927 2.927 0 00-2.235-2.943 46.993 46.993 0 00-5.485-.141c-1.415-.026-1.942-.061-1.942-.061v.13a1.084 1.084 0 01.708.414 2.07 2.07 0 01.373 1.364c.025.639.031 1.561.031 2.238v3.306c0 .677 0 1.691-.031 2.332a2 2 0 01-.366 1.364 1.051 1.051 0 01-.7.414v.13a17.572 17.572 0 012.169-.072 15.267 15.267 0 012.092.072V101a1.056 1.056 0 01-.7-.414 2.017 2.017 0 01-.363-1.364c-.033-.641-.053-2.892-.053-2.892l1.163-.036 3.244 4.706a.3.3 0 00.245.13h3.206V101a1.981 1.981 0 01-.874-.317 4.615 4.615 0 01-.866-.878zm-6.116-4.629v-4.894s.485-.015 1.993-.015 2.736.677 2.777 2.355a2.285 2.285 0 01-1.607 2.366 10.125 10.125 0 01-3.163.188z" class="prefix__cls-1" data-name="パス 425" transform="translate(-1310.467 -89.087)"/><path id="prefix__パス_426" d="M1394.994 100.61a18.536 18.536 0 01-1.832-1.763l-3.98-4.466s4.124-3.574 4.933-4.215a2.931 2.931 0 01.976-.6v-.13c-.559.036-1.295.046-1.867.046-1.277 0-2.036-.046-2.036-.046v.13a2.468 2.468 0 01.692.146c1.081.393-.353 1.494-.8 1.9l-1.415 1.16c-.932.766-2.125 1.668-2.314 1.793v-.978c0-.677.01-1.6.041-2.238a2.022 2.022 0 01.362-1.364 1.077 1.077 0 01.716-.414v-.13a18.141 18.141 0 01-2.184.072 15.357 15.357 0 01-2.1-.072v.13a1.059 1.059 0 01.7.414 1.986 1.986 0 01.37 1.364c.031.639.038 1.561.038 2.238l.013 3.4v.128c0 .68-.013 1.472-.041 2.11a2.017 2.017 0 01-.365 1.367 1.068 1.068 0 01-.705.416v.128a17.5 17.5 0 012.179-.074 14.64 14.64 0 012.105.074v-.128a1.1 1.1 0 01-.716-.416 2.016 2.016 0 01-.362-1.367 40.374 40.374 0 01-.041-2.11v-1.673l2.113 2.3 3.02 3.257a.281.281 0 00.212.092h3.142v-.125s-.295.034-.854-.356z" class="prefix__cls-1" data-name="パス 426" transform="translate(-1384.175 -89.087)"/></g><g id="prefix__グループ_23" data-name="グループ 23" transform="translate(81.459 10.177)"><path id="prefix__パス_427" d="M1400.8 80.391h-4.872v-2.636c.626-.37.718-.705.718-.705l-4.021-.368a.649.649 0 01.332.514l.018 3.2h-9.123l.46.457h19.51c.182 0 1.318.084 1.607-.485l-2.82-1.913z" class="prefix__cls-1" data-name="パス 427" transform="translate(-1383.578 -76.513)"/><path id="prefix__パス_428" d="M1391.772 83.844l-3.472-1.694a.861.861 0 01-.195.685 22.308 22.308 0 01-4.358 4.8l.041.095c1.1-.3 3.191-.8 7-3.556a1.207 1.207 0 00.984-.33z" class="prefix__cls-1" data-name="パス 428" transform="translate(-1383.743 -68.012)"/><path id="prefix__パス_429" d="M1396.759 86.624a4.476 4.476 0 001.024-.015 2.686 2.686 0 001.891-.922V81.4c.8-.34.932-.687.932-.687l-2.933-2.013-1.088 1.165h-8.109l-3.331-1.093a1.12 1.12 0 01.291.69l.023 7.263a4.862 4.862 0 001.482-.34 3.468 3.468 0 001.346-.943h2.874v6.382c0 .743-.411.741-1.012.7-1.315-.066-3.594-.358-3.594-.358l.081.222a13.089 13.089 0 012.923 1.093c.455.307.6.9.649 1.74a5.5 5.5 0 001.226.141 2.755 2.755 0 002.56-3.068v-6.853h2.764zm-8.472-1.648v-4.66h8.472v4.66z" class="prefix__cls-1" data-name="パス 429" transform="translate(-1381.563 -73.377)"/><path id="prefix__パス_430" d="M1389.112 82.371l.005.179a12.822 12.822 0 013.86 4.7 2.649 2.649 0 001.088.491 1.534 1.534 0 001.783-1.821c-.211-1.153-2.713-3.365-6.736-3.549z" class="prefix__cls-1" data-name="パス 430" transform="translate(-1375.396 -67.668)"/><path id="prefix__パス_431" d="M1412.86 79.051h-2.36l-2.807-1.538c.143.092.163.391.163.391v6.5l-1.5-1.03-1.382 1.479h-1.274a23.3 23.3 0 003.15-4.476c.585-.125.7-.422.7-.422l-2.723-1.472a3.933 3.933 0 01-.289.835c-.151.33-.347.723-.562 1.147l-1.3-.858-1.224 1.242h-.35v-3.06c.534-.314.6-.608.6-.608l-3.329-.335a.624.624 0 01.243.457v3.548h-3.068l.475.455h2.593v3.548h-4.184l.45.452h5.965c-.1.128-.21.25-.312.37a33.718 33.718 0 01-1.862 1.977l-2.325-.685a.558.558 0 01.161.383v2.289a21.884 21.884 0 01-3.354 2.34l.038.363a17.557 17.557 0 003.316-1.507V97.8a3.625 3.625 0 001.042-.023c1.226-.255 1.4-.932 1.4-.932v-.726h4.35v1.4a3.71 3.71 0 001.106-.095 2.378 2.378 0 001.321-.917v-7.521c.391-.112.853-.45.864-.644l-2.483-1.73-1.058 1.165h-2.194c.263-.225.506-.457.738-.674.621-.623 1.2-1.216 1.725-1.8h4.547v12.668a1.858 1.858 0 001.185.031c1.06-.317 1.214-.968 1.214-.968v-4.265c.7.092 2.555 1.2 2.317 2.984a6.283 6.283 0 002.739-1.165 3.834 3.834 0 001.147-3.252c-.189-2.312-1.487-4.323-4.363-6.182.969-1.415 2.726-3.129 3.671-4.545a1.308 1.308 0 00.943-.59l-2.516-2.4zm-9.57 16.575h-4.35v-3.495h4.35zm0-7.373v3.408h-4.35V89.28c.488-.335.935-.685 1.349-1.027zm-2.192-6.946h2.45a25.8 25.8 0 01-2.346 3.548h-.1zm10.311 3.858a8.2 8.2 0 012.611 5.071c.13 1.916-.892 2.626-2.43 2.45-.506-.054-1.336-.186-1.336-.186V79.47h2.979c-.251 1.384-1.62 4.864-1.825 5.694z" class="prefix__cls-1" data-name="パス 431" transform="translate(-1369.126 -76.258)"/><path id="prefix__パス_432" d="M1419.1 90.673a18.779 18.779 0 01-3.567-6.673h8.476c.2 0 1.392.087 1.691-.511l-2.958-1.98-1.885 1.99h-5.72c.092-1.111.251-3.393.251-4.187l.071-1.4a4.208 4.208 0 00.981-.861l-4.4-.35a.954.954 0 01.209.611 38.318 38.318 0 01-.02 6.185h-8.517l.48.5h8a25.155 25.155 0 01-1.855 7.633 12.7 12.7 0 01-6.4 6.175l.1.345c3.4-.628 6.78-2.43 8.456-5.273a18.149 18.149 0 002.458-7.488c.654 3.686 3.089 9.427 7.026 11.89a8.112 8.112 0 001.241.6 2.944 2.944 0 01.061-1.206 2.618 2.618 0 012.749-1.714l.036-.25a11.218 11.218 0 01-6.964-4.036z" class="prefix__cls-1" data-name="パス 432" transform="translate(-1352.705 -76.483)"/><path id="prefix__パス_433" d="M1417.043 80.6a1.455 1.455 0 002.322-1.7c-.345-1.068-2.143-2.105-4.591-2.054l.094.148a7.306 7.306 0 012.175 3.606z" class="prefix__cls-1" data-name="パス 433" transform="translate(-1335.498 -76.259)"/><path id="prefix__パス_434" d="M1418.923 80.39a1.477 1.477 0 001.53.682 1.518 1.518 0 001.065-2.184c-.572-1.436-2.981-2.294-4.961-2.271l.082.11a4.936 4.936 0 012.284 3.663z" class="prefix__cls-1" data-name="パス 434" transform="translate(-1332.727 -76.616)"/><path id="prefix__パス_435" d="M1432.156 88.7l-1.711 1.827h-4.706v-1.159l3.834-1.931a1.444 1.444 0 001.395-.582l-.577-.445 3.438-1.816a1.107 1.107 0 001.012-.422l-2.879-2.233-.654.7h-3.781l4.011-3.441c.932-.12 1.091-.57 1.091-.57l-4.547-2c.34.45-.713 5.217-.961 6.006h-9.921a11.839 11.839 0 00-.506-1.563h-.219c-.373 1.819-.917 2.672-1.622 3.175a2.151 2.151 0 00-1.114 1.671 1.476 1.476 0 001.528 1.543c1.132 0 2.113-1.236 2.113-3.2a7.741 7.741 0 00-.1-1.2h14.067a22.008 22.008 0 01-1.367 3.025l-.283-.212-1.916-1.344-.687.879h-9l.44.475 8.6-.005a26.856 26.856 0 01-1.607 2.741l-2.756-.516a.78.78 0 01.21.47v1.939h-9l.445.47h8.556v3.1c0 .764-.21.869-1.211.764-.153-.015-2.785-.506-3.285-.547l-.021.317c1.954.368 3.4.787 3.495 2.394a2.889 2.889 0 01-.1 1.017 6.311 6.311 0 001.326-.082c2.21-.5 2.555-1.658 2.555-2.925v-4.025h7.585c.184 0 1.262.064 1.541-.473z" class="prefix__cls-1" data-name="パス 435" transform="translate(-1337.106 -76.586)"/></g></g></svg>
