<svg xmlns="http://www.w3.org/2000/svg" width="34" height="128.495" viewbox="0 0 34 128.495"><g data-name="グループ 9"><path d="M3.065 5.795h27.163c.259 0 1.842.116 2.251-.677l-3.941-2.657-2.519 2.767h-6.768v-3.73c.862-.523 1-.982 1-.982L14.644 0a.926.926 0 01.463.718l.035 4.511H2.423z" data-name="パス 172"/><path d="M11.87 22.429a1.671 1.671 0 001.4-.412l-4.757-2.521a1.276 1.276 0 01-.29.935 30.882 30.882 0 01-6.312 6.466l.057.129c1.545-.348 4.485-.958 9.902-4.597z" data-name="パス 173"/><path d="M4.564 61.516a5.3 5.3 0 001.429-.025c1.679-.362 1.911-1.281 1.911-1.281v-1.03h5.918v1.942a4.819 4.819 0 001.518-.116 3.189 3.189 0 001.784-1.259v-10.25c.52-.148 1.152-.614 1.191-.862l-3.41-2.367-1.442 1.6h-2.971c.368-.312.692-.63 1-.938a44.615 44.615 0 002.339-2.449h6.208v17.273a2.69 2.69 0 001.631.041c1.423-.434 1.628-1.332 1.628-1.332v-5.8c.963.135 3.491 1.64 3.17 4.064a8.662 8.662 0 003.727-1.58 4.444 4.444 0 001.819-3.645c0-4.067-2.682-7.287-6.309-9.217 1.342-1.923 3.834-4.269 5.106-6.179a1.828 1.828 0 001.3-.828l-3.444-3.249-1.823 1.9h-3.2l-3.827-2.069c.192.132.223.541.223.541v8.859l-2.062-1.395-1.873 2.065h-1.772a31.625 31.625 0 004.322-6.167c.787-.154.967-.56.967-.56l-3.724-2.005a4.642 4.642 0 01-.39 1.136c-.2.453-.463.985-.752 1.577l-1.785-1.187-1.659 1.744h-.495v-4.215c.721-.438.826-.818.826-.818l-4.561-.482a.81.81 0 01.365.627v4.889H3.26l.563.567h3.624v4.9h-5.72l.613.551h8.131c-.145.179-.274.349-.415.516a66.504 66.504 0 01-2.525 2.7l-3.2-.935a.755.755 0 01.226.529v3.1a30.732 30.732 0 01-4.565 3.192l.063.5a25.869 25.869 0 004.5-2.052zm18.733-25.045h4.061c-.34 1.9-1.845 6.781-2.112 7.923a9.094 9.094 0 013.157 7.366c0 2.625-1.181 3.032-3.259 2.792-.711-.076-1.848-.271-1.848-.271zm-12.48 2.563h3.334a34.349 34.349 0 01-3.223 4.9h-.111zm-2.918 10.87a36.21 36.21 0 001.91-1.47h4.008v4.726H7.899zm0 3.85h5.918v4.851H7.899z" data-name="パス 174"/><path d="M13.987 26.439c-1.826-.1-4.974-.507-4.974-.507l.1.3a18.471 18.471 0 014.08 1.53c.616.422.831 1.262.9 2.421a7.822 7.822 0 001.69.2c1.464-.072 3.576-1.136 3.576-4.275v-9.453h3.853v1.561a6.2 6.2 0 001.433-.013 3.729 3.729 0 002.612-1.3v-5.965c1.108-.466 1.306-.954 1.306-.954L24.49 7.176l-1.53 1.615H11.68L7.03 7.277a1.578 1.578 0 01.419.97l.022 10.1a6.618 6.618 0 002.074-.469 5.427 5.427 0 001.873-1.228h4v8.808c-.004 1.028-.572 1.022-1.431.981zm-2.569-10.4V9.371h11.8v6.67z" data-name="パス 175"/><path d="M26.6 27.025a3.434 3.434 0 001.508.642 2.121 2.121 0 002.427-2.569c-.305-1.605-3.834-4.609-9.444-4.775l.022.255a17.979 17.979 0 015.487 6.447z" data-name="パス 176"/><path d="M5.311 97.109l.16.227a11.151 11.151 0 013.271 5.414 2.229 2.229 0 002.081.579 2.258 2.258 0 001.407-3.126c-.504-1.598-3.233-3.168-6.919-3.094z" data-name="パス 177"/><path d="M15.449 101.904a2.256 2.256 0 003.906-2.254c-.833-2.166-4.473-3.456-7.428-3.422l.113.167a7.335 7.335 0 013.409 5.509z" data-name="パス 178"/><path d="M23.955 83.983a24.012 24.012 0 01-5.176-8.972h11.383c.249 0 1.82.035 2.238-.752l-3.912-2.629-2.49 2.729H18.21c.126-1.272.4-4.514.394-5.638l.126-1.857a5.638 5.638 0 001.4-1.14l-6.362-.453a1.213 1.213 0 01.312.793 45.257 45.257 0 01-.051 8.295H2.388l.614.658 10.958-.006a29.994 29.994 0 01-2.651 9.774A17.683 17.683 0 012.08 92.97l.147.447c4.9-.815 9.79-3.2 12.192-6.966a22.136 22.136 0 003.409-8.824c1.011 4.552 4.735 11.695 10.272 14.868a10.818 10.818 0 001.794.806 3.359 3.359 0 01.091-1.6c.57-1.7 2.351-2.09 3.976-2.046l.037-.334a16.461 16.461 0 01-10.043-5.338z" data-name="パス 179"/><path d="M26.467 117.287h-6.821v-1.948l5.522-2.78a2.17 2.17 0 002.1-.891l-1.1-.771 5.248-2.82a1.613 1.613 0 001.511-.63l-4.288-3.617-1.795 1.5h-5.011l6.038-5.188c1.41-.179 1.63-.837 1.63-.837l-6.834-3.006c.491.674-1.083 7.841-1.445 9.031H7.061a19.056 19.056 0 00-.737-2.348h-.343c-.563 2.726-1.365 4.01-2.433 4.772a3.251 3.251 0 00-1.684 2.515 2.238 2.238 0 002.292 2.329c1.718 0 3.179-1.864 3.179-4.807a11.639 11.639 0 00-.151-1.873h19.863a26.656 26.656 0 01-1.7 4.281l-3-2.15-1.546 1.536H8.169l.649.592h12.078s-1.184 3.041-1.844 4.19l-3.888-.8a1 1 0 01.341.7v3.02H2.241l.671.623h12.592v4.64c0 1.149-.341 1.309-1.813 1.149-.239-.022-4.184-.743-4.949-.815l-.022.488c2.927.548 5.093 1.171 5.228 3.592a3.731 3.731 0 01-.128 1.521 9.513 9.513 0 001.984-.11c3.321-.746 3.843-2.5 3.843-4.41v-6.053h11.15c.274 0 1.9.094 2.32-.715l-4.054-2.745z" data-name="パス 180"/></g></svg>
